<svg xmlns="http://www.w3.org/2000/svg" width="135" height="45" viewBox="0 0 135 45">
    <rect width="135" height="45" rx="5" fill="black"/>
    <path d="M31.5,14.2c-2.4-2.8-5.9-3.3-7.2-3.3c-3.5,0-6.8,2-8.6,5.1c-1.8,3.1-3.3,9.1,0.2,12.6c1.7,1.7,3.8,2.7,6.1,2.7 c0.8,0,2.9-0.3,4.6-1.5c1.6-1.1,2.9-2.8,3.6-3c0.7-0.2,2.3,0.8,2.3,0.8s-3.7,2.5-3.6,5.1c0,0.1,0,0.2,0,0.2c-0.1,2.9,2.4,4.2,2.6,4.2 c0.1,0,0.2,0,0.3-0.1c1.2-0.5,3.3-2,4.6-4.6c2.2-4.5,1.2-10-1.4-13.4C36.6,12.4,34.1,11.3,31.5,14.2z M27.9,10.1 c1.6-1.9,4.2-3.1,6.8-3.1c0.3,0,0.5,0.2,0.5,0.5c-0.1,2.5-1.5,4.8-3.5,6.2C29.8,12.3,28.4,11.2,27.9,10.1z" fill="white"/>
    <text x="48" y="22" font-family="Arial, sans-serif" font-size="10" fill="white">Download on the</text>
    <text x="48" y="36" font-family="Arial, sans-serif" font-size="16" font-weight="bold" fill="white">App Store</text>
</svg>
