<svg xmlns="http://www.w3.org/2000/svg" viewBox="0 0 755 132">
    <g fill="#9B9B9B" fill-rule="nonzero">
        <path d="M112.55 132H132v-5.27h-9.9v-9.4h9.9v-5.26h-9.9v-8.85h9.9V98H112.55v34zM147.2 132h5.27v-34h-5.27v34zM157.75 132H178.2v-5.27h-9.9v-9.4h9.9v-5.26h-9.9v-8.85h9.9V98H157.75v34zM183.47 132h15.28l5.8-10.42 5.8 10.4h15.27L205.1 98h-5.25l-20.45 34h.07zm14.7-3.95l-8.9-15.8-8.9 15.8h17.8zM231.85 132h5.27v-34h-5.27v34zM242.4 132h20.45v-5.27h-9.9v-9.4h9.9v-5.26h-9.9v-8.85h9.9V98H242.4v34zM268.12 132h20.45v-5.27h-9.9v-9.4h9.9v-5.26h-9.9v-8.85h9.9V98h-20.45v34zM293.84 132h20.45v-5.27h-9.9v-9.4h9.9v-5.26h-9.9v-8.85h9.9V98h-20.45v34zM319.56 132h5.27v-34h-5.27v34zM330.11 132h20.45v-5.27h-9.9v-9.4h9.9v-5.26h-9.9v-8.85h9.9V98h-20.45v34zM355.83 132h19.87c10.48 0 15.28-4.2 15.28-11.48 0-4.72-2.1-7.8-6.07-9.4l7.45-13.12h-5.8l-7.44 13.1h-2.9v-13.1h-5.27v34h.07zm14.42-18.23c4.2 0 6.64 2.1 6.64 6.07 0 3.95-2.43 6.07-6.65 6.07h-9.1V108.5h9.1c.01 5.27 0 5.27 0 5.27zM399.73 121.58c0-8.86 6.36-15.8 15.28-15.8 8.9 0 15.27 6.94 15.27 15.8 0 8.85-6.36 15.8-15.27 15.8-8.92 0-15.28-6.95-15.28-15.8zm25.28 0c0-6.07-4.2-10.55-9.9-10.55s-9.9 4.48-9.9 10.55c0 6.06 4.2 10.54 9.9 10.54s9.9-4.48 9.9-10.54zM435.55 132h5.27v-34h-5.27v34zM446.1 132h19.88c10.47 0 15.27-4.2 15.27-11.48 0-4.72-2.1-7.8-6.06-9.4l7.44-13.12h-5.8l-7.44 13.1h-2.9v-13.1h-5.27v34h.08zm14.4-18.23c4.2 0 6.65 2.1 6.65 6.07 0 3.95-2.43 6.07-6.65 6.07h-9.1V108.5h9.1c.02 5.27 0 5.27 0 5.27zM489.6 132h20.45v-5.27h-9.9v-9.4h9.9v-5.26h-9.9v-8.85h9.9V98H489.6v34zM515.32 132h5.27v-34h-5.27v34zM525.87 132h15.8l-3.48-10.55h-8.85l-3.47 10.55h-5.27l12.9-34h5.28l12.9 34h-5.26zm-.58-14.2l-3.2-9.67-3.2 9.68h6.4zM552.3 132h20.45v-5.27h-9.9v-9.4h9.9v-5.26h-9.9v-8.85h9.9V98h-20.45v34zM578.02 132h20.45v-5.27h-9.9v-9.4h9.9v-5.26h-9.9v-8.85h9.9V98h-20.45v34zM613.95 121.58c0-8.86 6.37-15.8 15.28-15.8 8.9 0 15.27 6.94 15.27 15.8 0 8.85-6.36 15.8-15.27 15.8-8.91 0-15.28-6.95-15.28-15.8zm25.28 0c0-6.07-4.2-10.55-9.9-10.55-5.71 0-9.9 4.48-9.9 10.55 0 6.06 4.2 10.54 9.9 10.54s9.9-4.48 9.9-10.54zM649.77 132h19.88c10.47 0 15.27-4.2 15.27-11.48 0-4.72-2.1-7.8-6.06-9.4l7.44-13.12h-5.8l-7.44 13.1h-2.9v-13.1h-5.27v34h.08zm14.4-18.23c4.2 0 6.65 2.1 6.65 6.07 0 3.95-2.43 6.07-6.65 6.07h-9.1V108.5h9.1c.02 5.27 0 5.27 0 5.27zM693.3 132h5.27v-34h-5.27v34zM703.85 132h20.45v-5.27h-9.9v-9.4h9.9v-5.26h-9.9v-8.85h9.9V98h-20.45v34zM729.57 132h19.87c10.48 0 15.28-4.2 15.28-11.48 0-4.72-2.1-7.8-6.07-9.4l7.45-13.12h-5.8l-7.44 13.1h-2.9v-13.1h-5.27v34h.07zm14.42-18.23c4.2 0 6.64 2.1 6.64 6.07 0 3.95-2.43 6.07-6.65 6.07h-9.1V108.5h9.1c.01 5.27 0 5.27 0 5.27z"/>
        <path d="M72.95 29.5h16.5l-2.4-7.24h-11.7l-2.4 7.24zm-4-10.4l-3.32 10.12-3.33-10.1h-4.32l10.55 31.77h4.3l10.56-31.78h-4.32l-3.3 10.1-3.32-10.1h-4.22zM100.95 50.87V23.4h11.7l.27 1.8h.26c1.08-1.52 3.6-2.08 5.4-2.08 5.12 0 9.17 3.88 9.17 9.7v18.05h-4.33V33.1c0-3.32-2.1-5.92-5.4-5.92-3.04 0-5.1 2.3-5.1 5.65v18.04h-4.32l-.01-.02zM140.6 50.87V23.4h4.32v27.48h-4.32zM153.28 50.87l-6.2-9.46v9.46h-4.33V23.4h4.33v9.46l6.2-9.46h5.1l-7.53 11.16 8.07 16.3h-5.12l-.02.01zM170.18 50.87V23.4h4.32v10.9h9.16v-10.9h4.33v27.48h-4.33V38.1h-9.16v12.78h-4.32zM196.35 50.87V23.4h4.33v27.48h-4.33zM218.4 51.15c-6.2 0-10.4-4.3-10.4-10.1s4.2-10.1 10.4-10.1c2.63 0 4.85.8 6.5 2.3l-2.62 2.6c-1.1-1-2.6-1.5-3.88-1.5-3.88 0-6.2 2.88-6.2 6.78 0 3.88 2.32 6.77 6.2 6.77 1.28 0 2.78-.54 3.88-1.52l2.62 2.62c-1.65 1.5-3.87 2.3-6.5 2.3zM236.44 21.02c-4.85 0-8.35 3.3-8.35 8.06 0 4.75 3.5 8.06 8.35 8.06s8.34-3.3 8.34-8.06c0-4.75-3.5-8.06-8.34-8.06zm0 13.23c-2.4 0-4.04-1.8-4.04-5.17s1.63-5.17 4.04-5.17 4.04 1.8 4.04 5.17-1.64 5.17-4.04 5.17zM250.7 37.17V23.4h4.32v13.77h4.33V23.4h4.32v13.77h4.33V23.4h4.32v14.04c0 4.85-2.6 7.24-7.25 7.24h-11.7l-.02-1.8h-.26c-1.1 1.5-3.6 2.08-5.4 2.08-4.3 0-6.76-2.6-6.76-6.5v-8.8h4.3v8.8c0 1.8.8 3.04 2.74 3.04 1.9 0 3.03-1.2 3.03-3.3v-1.25l10.9-.01zM302.5 34.25c.54 5.1 4.3 8.34 9.16 8.34 4.04 0 6.5-2.1 6.5-4.86 0-3.03-2.4-4.3-7.25-5.93-6.2-2.1-8.62-4.6-8.62-8.6 0-4.3 3.6-7.53 8.9-7.53 4.86 0 8.06 2.7 8.6 6.76l-4.3.82c-.5-2.4-2.1-3.6-4.3-3.6-2.4 0-3.87 1.26-3.87 3.03 0 2.4 1.8 3.6 6.76 5.4 6.5 2.3 9.1 4.85 9.1 8.9 0 5.1-4.02 8.34-9.7 8.34-5.94 0-9.7-3.2-10.12-7.8l4.3-.26zM330.43 50.87V23.4h11.7l.27 1.8h.26c1.08-1.52 3.6-2.08 5.4-2.08 5.12 0 9.17 3.88 9.17 9.7v18.05h-4.33V33.1c0-3.32-2.1-5.92-5.4-5.92-3.04 0-5.1 2.3-5.1 5.65v18.04h-4.32l-.01-.02zM360.75 36.9v-6.2h-7.25V26.9h7.25V23.4h4.32v3.5h5.1v3.87h-5.1v5.6c0 1.53.54 2.1 1.8 2.1.82 0 1.53-.27 2.17-.54l.8 3.3c-.8.55-2.08.82-3.6.82-3.87 0-5.4-1.8-5.4-5.65zm23.1-15.88c-4.85 0-8.35 3.3-8.35 8.06 0 4.75 3.5 8.06 8.35 8.06s8.34-3.3 8.34-8.06c0-4.75-3.5-8.06-8.34-8.06zm0 13.23c-2.4 0-4.04-1.8-4.04-5.17s1.63-5.17 4.04-5.17 4.04 1.8 4.04 5.17-1.64 5.17-4.04 5.17zM394.8 50.87V23.4h4.32v27.48h-4.32zM404.22 50.87V23.4h11.7l.27 1.8h.26c1.08-1.52 3.6-2.08 5.4-2.08 5.12 0 9.17 3.88 9.17 9.7v18.05h-4.33V33.1c0-3.32-2.1-5.92-5.4-5.92-3.04 0-5.1 2.3-5.1 5.65v18.04h-4.32l-.01-.02zM435.54 50.87V23.4h4.32v10.9h9.16v-10.9h4.33v27.48h-4.33V38.1h-9.16v12.78h-4.32zM461.72 50.87V23.4h4.33v27.48h-4.33zM471.13 50.87V23.4h11.7l.27 1.8h.26c1.08-1.52 3.6-2.08 5.4-2.08 5.12 0 9.17 3.88 9.17 9.7v18.05h-4.33V33.1c0-3.32-2.1-5.92-5.4-5.92-3.04 0-5.1 2.3-5.1 5.65v18.04h-4.32l-.01-.02zM502.45 50.87V23.4h4.32v10.9h9.16v-10.9h4.33v27.48h-4.33V38.1h-9.16v12.78h-4.32zM528.63 50.87V23.4h4.33v27.48h-4.33zM548.67 51.15c-6.2 0-10.4-4.3-10.4-10.1s4.2-10.1 10.4-10.1c2.63 0 4.85.8 6.5 2.3l-2.62 2.62c-1.1-1-2.6-1.52-3.88-1.52-3.88 0-6.2 2.88-6.2 6.77s2.32 6.77 6.2 6.77c1.28 0 2.78-.54 3.88-1.52l2.62 2.62c-1.65 1.5-3.87 2.3-6.5 2.3zM566.7 21.02c-4.85 0-8.35 3.3-8.35 8.06 0 4.75 3.5 8.06 8.35 8.06s8.34-3.3 8.34-8.06c0-4.75-3.5-8.06-8.34-8.06zm0 13.23c-2.4 0-4.04-1.8-4.04-5.17s1.63-5.17 4.04-5.17 4.04 1.8 4.04 5.17-1.64 5.17-4.04 5.17zM584.74 34.52V23.4h4.32v11.12c0 4.3 2.08 6.5 5.93 6.5s5.94-2.2 5.94-6.5V23.4h4.32v11.4c0 6.5-3.6 9.7-10.26 9.7-6.66 0-10.25-3.2-10.25-9.7zM612.8 50.87V23.4h11.7l.27 1.8h.26c1.08-1.52 3.6-2.08 5.4-2.08 5.12 0 9.17 3.88 9.17 9.7v18.05h-4.33V33.1c0-3.32-2.1-5.92-5.4-5.92-3.04 0-5.1 2.3-5.1 5.65v18.04h-4.32l-.01-.02zM644.13 50.87V23.4h4.32v10.9h9.16v-10.9h4.33v27.48h-4.33V38.1h-9.16v12.78h-4.32zM670.3 50.87V23.4h4.33v27.48h-4.33zM697.74 51.15c-6.2 0-10.4-4.3-10.4-10.1s4.2-10.1 10.4-10.1c2.63 0 4.85.8 6.5 2.3l-2.62 2.62c-1.1-1-2.6-1.52-3.88-1.52-3.88 0-6.2 2.88-6.2 6.77s2.32 6.77 6.2 6.77c1.28 0 2.78-.54 3.88-1.52l2.62 2.62c-1.65 1.5-3.87 2.3-6.5 2.3zM715.78 21.02c-4.85 0-8.35 3.3-8.35 8.06 0 4.75 3.5 8.06 8.35 8.06s8.34-3.3 8.34-8.06c0-4.75-3.5-8.06-8.34-8.06zm0 13.23c-2.4 0-4.04-1.8-4.04-5.17s1.63-5.17 4.04-5.17 4.04 1.8 4.04 5.17-1.64 5.17-4.04 5.17zM731.43 23.4v-2.3H736v2.3h-4.57zm2.3 27.48c-3.03 0-5.1-2.08-5.1-5.1v-18.3h4.32v18.04c0 1.28.8 2.08 2.07 2.08s2.08-.8 2.08-2.08V23.4h4.32v18.3c0 3.03-2.07 5.1-5.1 5.1h-2.57v-.02zM0 80.93h12.18V69.72H0v11.21zm24.36 0h12.18V69.72H24.36v11.21zm-12.18-22.42h12.18V47.3H12.18v11.21zm24.36 0h12.18V47.3H36.54v11.21zM12.18 47.3h12.18V36.1H12.18v11.2z"/>
    </g>
</svg>